<svg width="17" height="16" viewBox="0 0 17 16" fill="none" xmlns="http://www.w3.org/2000/svg">
<path d="M16.5171 10.0064V15.8965H13.1023V10.4007C13.1023 9.01973 12.6082 8.07782 11.3725 8.07782C10.429 8.07782 9.86706 8.71321 9.62041 9.32705C9.53021 9.54657 9.50706 9.85229 9.50706 10.1596V15.8965H6.09062C6.09062 15.8965 6.13692 6.58911 6.09062 5.62405H9.50706V7.08003L9.48471 7.11355H9.50706V7.08003C9.96046 6.38157 10.7707 5.38298 12.585 5.38298C14.8321 5.38298 16.5171 6.85173 16.5171 10.0064ZM2.51773 0.672607C1.34991 0.672607 0.585205 1.43891 0.585205 2.44708C0.585205 3.4329 1.32756 4.22235 2.47303 4.22235H2.49538C3.68714 4.22235 4.4271 3.4329 4.4271 2.44708C4.40635 1.43891 3.68794 0.672607 2.51853 0.672607H2.51773ZM0.787956 15.8965H4.2028V5.62405H0.787956V15.8965Z" fill="black"/>
</svg>
