<svg width="22" height="22" viewBox="0 0 22 22" fill="none" xmlns="http://www.w3.org/2000/svg">
<path d="M19.3229 17.8338C20.3976 16.5408 21.1451 15.0079 21.5021 13.3648C21.8591 11.7218 21.8151 10.017 21.3739 8.39452C20.9326 6.77208 20.1071 5.27977 18.9672 4.04385C17.8272 2.80792 16.4064 1.86473 14.8248 1.29406C13.2432 0.723399 11.5475 0.542048 9.88101 0.765354C8.21453 0.98866 6.62635 1.61005 5.25082 2.57696C3.87529 3.54388 2.75287 4.82786 1.97852 6.3203C1.20416 7.81275 0.800655 9.46974 0.802128 11.1511C0.802693 13.5953 1.66403 15.9613 3.23499 17.8338L3.22003 17.8465C3.27241 17.9094 3.33228 17.9633 3.38616 18.0254C3.45351 18.1025 3.5261 18.1751 3.5957 18.2499C3.80523 18.4774 4.02075 18.6959 4.24675 18.901C4.3156 18.9638 4.38669 19.0222 4.45629 19.0821C4.69576 19.2886 4.94197 19.4847 5.19715 19.6673C5.23008 19.6897 5.26001 19.7189 5.29294 19.7421V19.7331C7.04564 20.9665 9.13651 21.6285 11.2797 21.6285C13.4229 21.6285 15.5137 20.9665 17.2664 19.7331V19.7421C17.2994 19.7189 17.3286 19.6897 17.3622 19.6673C17.6167 19.4839 17.8636 19.2886 18.1031 19.0821C18.1727 19.0222 18.2438 18.9631 18.3126 18.901C18.5386 18.6952 18.7541 18.4774 18.9637 18.2499C19.0333 18.1751 19.1051 18.1025 19.1732 18.0254C19.2264 17.9633 19.287 17.9094 19.3394 17.8458L19.3229 17.8338ZM11.2789 5.16436C11.945 5.16436 12.5961 5.36186 13.1499 5.73189C13.7036 6.10192 14.1353 6.62786 14.3901 7.2432C14.645 7.85854 14.7117 8.53564 14.5818 9.18888C14.4518 9.84212 14.1311 10.4422 13.6602 10.9131C13.1892 11.3841 12.5892 11.7048 11.9359 11.8347C11.2827 11.9647 10.6056 11.898 9.99024 11.6431C9.3749 11.3882 8.84896 10.9566 8.47893 10.4028C8.1089 9.84902 7.91139 9.19794 7.91139 8.53191C7.91139 7.63878 8.26619 6.78223 8.89773 6.15069C9.52926 5.51915 10.3858 5.16436 11.2789 5.16436ZM5.29743 17.8338C5.31041 16.8512 5.70973 15.9132 6.40899 15.2228C7.10825 14.5324 8.05123 14.145 9.03391 14.1445H13.524C14.5067 14.145 15.4496 14.5324 16.1489 15.2228C16.8482 15.9132 17.2475 16.8512 17.2605 17.8338C15.6192 19.3128 13.4882 20.1313 11.2789 20.1313C9.06964 20.1313 6.93867 19.3128 5.29743 17.8338Z" fill="black"/>
</svg>
