<svg width="25" height="25" viewBox="0 0 25 25" fill="none" xmlns="http://www.w3.org/2000/svg">
<path d="M9.17971 21.4637C10.0982 21.4637 10.8427 20.7191 10.8427 19.8007C10.8427 18.8822 10.0982 18.1377 9.17971 18.1377C8.26127 18.1377 7.51672 18.8822 7.51672 19.8007C7.51672 20.7191 8.26127 21.4637 9.17971 21.4637Z" fill="black"/>
<path d="M17.8272 21.4637C18.7456 21.4637 19.4902 20.7191 19.4902 19.8007C19.4902 18.8822 18.7456 18.1377 17.8272 18.1377C16.9087 18.1377 16.1642 18.8822 16.1642 19.8007C16.1642 20.7191 16.9087 21.4637 17.8272 21.4637Z" fill="black"/>
<path d="M22.2174 4.42813C22.1554 4.34763 22.0759 4.28239 21.9848 4.23742C21.8937 4.19245 21.7935 4.16894 21.6919 4.1687H6.32592L6.02659 3.21747C5.99371 3.11534 5.93661 3.02267 5.86016 2.94738C5.78371 2.87209 5.69018 2.81641 5.58756 2.7851L2.86026 1.94695C2.7764 1.92118 2.68829 1.91218 2.60095 1.92047C2.51361 1.92875 2.42876 1.95415 2.35124 1.99523C2.19468 2.07819 2.07749 2.21994 2.02544 2.38931C1.9734 2.55867 1.99077 2.74177 2.07372 2.89833C2.15668 3.05489 2.29843 3.17208 2.4678 3.22412L4.85585 3.95584L7.90244 13.5812L6.81817 14.4726L6.73169 14.559C6.46355 14.8695 6.31163 15.2635 6.30193 15.6737C6.29222 16.0838 6.42533 16.4846 6.67848 16.8074C6.85978 17.0279 7.09017 17.2029 7.35121 17.3184C7.61226 17.4339 7.89671 17.4867 8.18182 17.4726H19.2839C19.4603 17.4726 19.6295 17.4025 19.7543 17.2778C19.879 17.153 19.9491 16.9838 19.9491 16.8074C19.9491 16.631 19.879 16.4618 19.7543 16.337C19.6295 16.2123 19.4603 16.1422 19.2839 16.1422H8.07539C7.99879 16.1396 7.92416 16.1173 7.8587 16.0774C7.79325 16.0375 7.73919 15.9814 7.70174 15.9145C7.66429 15.8477 7.64472 15.7723 7.64492 15.6956C7.64512 15.619 7.66508 15.5437 7.70288 15.477L9.306 14.1466H19.5699C19.7219 14.151 19.8708 14.1033 19.9918 14.0113C20.1128 13.9193 20.1987 13.7887 20.2351 13.6411L22.3638 4.99354C22.384 4.89437 22.3813 4.7919 22.356 4.69391C22.3306 4.59593 22.2832 4.50503 22.2174 4.42813Z" fill="black"/>
</svg>
