<svg width="15" height="15" viewBox="0 0 15 15" fill="none" xmlns="http://www.w3.org/2000/svg">
<rect x="0.625571" y="0.89315" width="13.7999" height="13.7991" rx="6.89956" fill="black"/>
<path d="M7.52576 9.36077C7.62185 9.36079 7.71458 9.3961 7.78635 9.45999C7.85812 9.52388 7.90392 9.61191 7.91507 9.70735L7.91781 9.75282V10.3738L8.03269 10.2601C8.10015 10.1926 8.18994 10.152 8.28522 10.1459C8.3805 10.1398 8.47472 10.1687 8.5502 10.2272L8.58705 10.2597C8.65455 10.3273 8.6951 10.4171 8.70109 10.5124C8.70709 10.6076 8.67811 10.7018 8.61959 10.7773L8.58705 10.8145L7.80294 11.5986L7.78569 11.6147L7.75903 11.6362L7.71552 11.6645L7.67121 11.6853L7.63005 11.6994L7.58379 11.7088L7.54889 11.7127H7.50224L7.4795 11.7107L7.43402 11.7029L7.39168 11.69L7.35992 11.6766L7.3215 11.6562L7.28386 11.63C7.27149 11.6202 7.25971 11.6098 7.24858 11.5986L6.46447 10.8145C6.39341 10.7441 6.35194 10.6492 6.34855 10.5493C6.34516 10.4493 6.3801 10.3518 6.44623 10.2768C6.51236 10.2017 6.60466 10.1548 6.70426 10.1456C6.80386 10.1364 6.90321 10.1656 6.98198 10.2272L7.01884 10.2597L7.13371 10.3746V9.75282C7.13362 9.65673 7.16884 9.56395 7.23266 9.49211C7.29647 9.42027 7.38446 9.37437 7.47989 9.36312L7.52576 9.36077ZM9.99295 6.73127C10.0605 6.66376 10.1503 6.62321 10.2456 6.61722C10.3408 6.61123 10.435 6.64021 10.5105 6.69873L10.5473 6.73127L11.3314 7.51537L11.3475 7.53262L11.3691 7.55928L11.3973 7.6028L11.4185 7.6471L11.4322 7.68866L11.442 7.73453L11.4459 7.76982V7.81608L11.4436 7.83882L11.4357 7.8843L11.4228 7.92664L11.4094 7.95879L11.3891 7.99681L11.36 8.03798L11.3314 8.07013L10.5473 8.85424C10.4769 8.9253 10.382 8.96677 10.2821 8.97016C10.1821 8.97355 10.0846 8.93861 10.0096 8.87248C9.93454 8.80635 9.88761 8.71404 9.8784 8.61445C9.86918 8.51485 9.89838 8.4155 9.96002 8.33673L9.99295 8.29948L10.1067 8.185H9.48603C9.38987 8.18507 9.29705 8.14981 9.2252 8.08591C9.15335 8.02201 9.10748 7.93393 9.09633 7.83843L9.09398 7.79256C9.09399 7.69653 9.12924 7.60384 9.19305 7.53209C9.25686 7.46033 9.34479 7.41448 9.44016 7.40325L9.48603 7.40089H10.1074L9.99295 7.28602C9.92539 7.21856 9.88477 7.12877 9.87871 7.03349C9.87264 6.93821 9.90156 6.84399 9.96002 6.76851L9.99295 6.73127ZM4.5042 6.73127C4.57476 6.66095 4.66943 6.62013 4.76899 6.61709C4.86855 6.61405 4.96554 6.64902 5.04025 6.7149C5.11496 6.78078 5.1618 6.87262 5.17124 6.97178C5.18069 7.07094 5.15204 7.16998 5.09111 7.24878L5.05857 7.28602L4.9437 7.40089H5.56549C5.66152 7.40091 5.7542 7.43616 5.82596 7.49997C5.89772 7.56378 5.94357 7.65171 5.9548 7.74708L5.95755 7.79256C5.95752 7.88864 5.92221 7.98137 5.85832 8.05314C5.79443 8.12491 5.70641 8.17072 5.61097 8.18186L5.56549 8.18461H4.94409L5.05857 8.29909C5.12607 8.3666 5.16662 8.45642 5.17261 8.5517C5.1786 8.64698 5.14962 8.74117 5.09111 8.8166L5.05857 8.85384C4.99106 8.92135 4.90124 8.9619 4.80596 8.96789C4.71068 8.97388 4.61649 8.9449 4.54106 8.88638L4.5042 8.85384L3.7201 8.06974L3.68207 8.02583L3.65384 7.98231L3.63306 7.93801L3.61934 7.89684L3.60954 7.85058L3.6064 7.82588L3.60522 7.78471L3.60679 7.75727L3.61307 7.71375L3.62483 7.66984L3.64169 7.62672L3.66246 7.5883L3.68873 7.55066C3.69847 7.53828 3.70894 7.52649 3.7201 7.51537L4.5042 6.73127ZM7.52576 6.71441C7.8117 6.71441 8.08594 6.828 8.28813 7.03019C8.49032 7.23238 8.60391 7.50661 8.60391 7.79256C8.60391 8.0785 8.49032 8.35273 8.28813 8.55492C8.08594 8.75711 7.8117 8.8707 7.52576 8.8707C7.23982 8.8707 6.96559 8.75711 6.7634 8.55492C6.5612 8.35273 6.44761 8.0785 6.44761 7.79256C6.44761 7.50661 6.5612 7.23238 6.7634 7.03019C6.96559 6.828 7.23982 6.71441 7.52576 6.71441ZM7.46735 3.87633L7.49636 3.87319L7.54732 3.8728L7.59437 3.87829L7.64808 3.89162L7.6916 3.90887L7.73002 3.92926L7.77079 3.95827L7.80294 3.98689L8.58705 4.771C8.65811 4.84139 8.69958 4.93628 8.70297 5.03624C8.70637 5.13621 8.67142 5.23369 8.60529 5.30873C8.53917 5.38377 8.44686 5.43071 8.34726 5.43992C8.24766 5.44913 8.14831 5.41993 8.06954 5.35829L8.03269 5.32575L7.91781 5.21088V5.83229C7.91789 5.92844 7.88262 6.02127 7.81872 6.09312C7.75482 6.16497 7.66675 6.21083 7.57124 6.22199L7.52576 6.22434C7.42973 6.22433 7.33705 6.18907 7.26529 6.12526C7.19353 6.06145 7.14769 5.97352 7.13645 5.87816L7.13371 5.83229V5.21049L7.01884 5.32575C6.95133 5.39326 6.86151 5.43381 6.76623 5.4398C6.67095 5.44579 6.57676 5.41681 6.50133 5.35829L6.46447 5.32575C6.39697 5.25824 6.35642 5.16843 6.35043 5.07315C6.34444 4.97787 6.37342 4.88368 6.43193 4.80824L6.46447 4.771L7.24858 3.98689L7.29249 3.94925L7.33562 3.92103L7.38031 3.90025L7.42148 3.88613L7.46735 3.87633Z" fill="white"/>
<rect x="0.625571" y="0.89315" width="13.7999" height="13.7991" rx="6.89956" stroke="black" stroke-width="0.313643"/>
</svg>
