<svg width="15" height="13" viewBox="0 0 15 13" fill="none" xmlns="http://www.w3.org/2000/svg">
<path d="M14.9435 1.95338C14.3911 2.19807 13.8052 2.35861 13.2053 2.42963C13.8372 2.05154 14.3101 1.45658 14.5358 0.755643C13.9418 1.10825 13.2919 1.35654 12.6141 1.48976C12.3309 1.18773 11.9887 0.947067 11.6087 0.782693C11.2287 0.618319 10.819 0.533734 10.405 0.534181C8.73371 0.534181 7.3785 1.88901 7.3785 3.5607C7.3785 3.79768 7.40532 4.02891 7.45705 4.25056C4.94166 4.12432 2.71171 2.9193 1.21895 1.08803C0.9498 1.54993 0.80837 2.07512 0.809169 2.60972C0.808773 3.10801 0.931468 3.59868 1.16635 4.03814C1.40124 4.4776 1.74104 4.85223 2.15557 5.12875C1.67504 5.11348 1.2051 4.9837 0.784839 4.7502C0.784456 4.76284 0.784456 4.77529 0.784456 4.78832C0.784456 6.25426 1.82759 7.47747 3.21192 7.75583C2.76617 7.8765 2.29881 7.89419 1.84521 7.80756C2.23028 9.0097 3.34794 9.88501 4.6723 9.90953C3.60023 10.7509 2.27636 11.2072 0.913578 11.2052C0.669319 11.2052 0.428508 11.191 0.191528 11.1628C1.57535 12.052 3.18589 12.5239 4.83073 12.5222C10.3976 12.5222 13.4417 7.91082 13.4417 3.91186C13.4417 3.78082 13.4386 3.64997 13.4329 3.51989C14.0257 3.09189 14.5373 2.56138 14.9435 1.95338Z" fill="black"/>
</svg>
